<svg id="Layer_1" data-name="Layer 1" xmlns="http://www.w3.org/2000/svg" viewBox="0 0 200 200"><defs><style>.cls-1{fill:#1a1a1a;}.cls-2{fill:#74c061;}.cls-3{fill:#8d65aa;}.cls-4{fill:#30ad4a;}.cls-5{fill:#a7d495;}.cls-6{fill:#6d449a;}.cls-7{fill:#aa87ba;}.cls-8{fill:#70ad44;}.cls-9{fill:#9dcd63;}.cls-10{fill:#c1db83;}.cls-11{fill:#434699;}.cls-12{fill:#5f63ac;}.cls-13{fill:#8383bf;}.cls-14{fill:#dacb27;}.cls-15{fill:#ece148;}.cls-16{fill:#f5eb6b;}.cls-17{fill:#3874ae;}.cls-18{fill:#649ccf;}.cls-19{fill:#b56929;}.cls-20{fill:#e29858;}.cls-21{fill:#f1b37d;}.cls-22{fill:#ad3434;}.cls-23{fill:#d46062;}.cls-24{fill:#ec8f92;}.cls-25{fill:#ad3471;}.cls-26{fill:#d4639e;}.cls-27{fill:#e688b2;}.cls-28{fill:#35acab;}.cls-29{fill:#6ec9cd;}.cls-30{fill:#a14597;}.cls-31{fill:#b669a9;}.cls-32{fill:#cc8cbd;}.cls-33{fill:#35ac71;}.cls-34{fill:#70c49a;}.cls-35{fill:#b7dfcf;}.cls-36{fill:#9ecced;}.cls-37{fill:#bde4eb;}</style></defs><title>icon</title><path class="cls-1" d="M137.11,105.75c.59,2,2.64,3.46,5.78,3.46,3.78,0,5.05-1.73,5.05-3.51a2.93,2.93,0,0,0-1.27-2.59,23.37,23.37,0,0,0-4.46-2.19C138,99.28,136,97.55,136,94.23c0-3.51,2.87-6.06,6.92-6.06a6.89,6.89,0,0,1,6.65,4l-2.73,1.42a4.12,4.12,0,0,0-3.87-2.28c-2.15,0-3.6,1.09-3.6,3s1.55,2.82,5,4.15c4.74,1.81,7,3.82,7,7.32s-3,6.65-8.43,6.65c-4.37,0-7.74-2-8.65-5.51Z"/><path class="cls-1" d="M154.87,120.59V88.86h3.37v3.41c1.32-2.32,4-4.1,8.15-4.1a11.06,11.06,0,0,1,8.24,3.51,12,12,0,0,1,3.37,8.65,12.13,12.13,0,0,1-3.37,8.7,11,11,0,0,1-8.24,3.46c-4.14,0-6.83-1.78-8.15-4.1v12.2Zm17.39-13.79a9.12,9.12,0,0,0,2.37-6.47,8.93,8.93,0,0,0-2.37-6.42,7.54,7.54,0,0,0-5.87-2.6,8.13,8.13,0,0,0-6.15,2.6,9,9,0,0,0-2.41,6.42,9.19,9.19,0,0,0,2.41,6.47,8.27,8.27,0,0,0,6.15,2.55A7.66,7.66,0,0,0,172.26,106.8Z"/><path class="cls-2" d="M109.16,39.73s0,0,0,0a.67.67,0,0,0-.48-.65l-.33-.08a61.05,61.05,0,0,0-18,0,3,3,0,0,0-.44.12.66.66,0,0,0-.41.61v0c0,.12,1.4,6.1,1.4,6.1a1.41,1.41,0,0,0,.08.32.63.63,0,0,0,.56.43,2.62,2.62,0,0,0,.37,0A53.84,53.84,0,0,1,99.3,46a56.08,56.08,0,0,1,7.49.52l.24,0a.8.8,0,0,0,.64-.41C107.72,46.07,109.16,39.86,109.16,39.73Z"/><path class="cls-3" d="M89.46,160.79s0,0,0,0a.64.64,0,0,0,.48.65,2.44,2.44,0,0,0,.32.08,60.23,60.23,0,0,0,18,0,1.85,1.85,0,0,0,.44-.12.62.62,0,0,0,.4-.61,0,0,0,0,1,0,0c0-.13-1.41-6.1-1.41-6.1a2,2,0,0,0-.07-.33.64.64,0,0,0-.57-.43,1.86,1.86,0,0,0-.37,0,55.21,55.21,0,0,1-7.44.52,54.2,54.2,0,0,1-7.48-.53,1.49,1.49,0,0,0-.25,0,.72.72,0,0,0-.63.41C90.89,154.46,89.46,160.66,89.46,160.79Z"/><path class="cls-4" d="M112.62,24.58s0,0,0,0a.69.69,0,0,0-.43-.64,2.48,2.48,0,0,0-.39-.09,76.74,76.74,0,0,0-24.94,0l-.41.06a.75.75,0,0,0-.44.69h0c0,.11,1.42,6.32,1.47,6.42a.78.78,0,0,0,.7.45h0a69.28,69.28,0,0,1,21.95-.05,1.21,1.21,0,0,0,.37.06.77.77,0,0,0,.63-.42C111.18,30.92,112.62,24.71,112.62,24.58Z"/><path class="cls-5" d="M105.68,54.89v0a.76.76,0,0,0-.53-.69l-.3-.06a46.2,46.2,0,0,0-5.55-.34,44.7,44.7,0,0,0-5.58.35h0l-.08,0a.76.76,0,0,0-.69.75h0c0,.12,1.48,6.43,1.48,6.43a.77.77,0,0,0,.67.45l.14,0a39.57,39.57,0,0,1,4.09-.23c1.35,0,2.67.09,4,.22a1.28,1.28,0,0,0,.31,0,.75.75,0,0,0,.61-.43C104.25,61.25,105.68,55,105.68,54.89Z"/><path class="cls-6" d="M86,176v0a.72.72,0,0,0,.43.64,1.75,1.75,0,0,0,.4.09,77,77,0,0,0,24.93,0l.41-.07a.78.78,0,0,0,.45-.68h0c0-.12-1.42-6.32-1.47-6.42a.77.77,0,0,0-.7-.45h0a68.82,68.82,0,0,1-21.94,0,1.78,1.78,0,0,0-.38-.06.75.75,0,0,0-.62.43C87.43,169.6,86,175.82,86,176Z"/><path class="cls-7" d="M92.93,145.64h0a.74.74,0,0,0,.54.69l.29.06a46.2,46.2,0,0,0,5.55.35,47,47,0,0,0,5.59-.35h0l.07,0a.76.76,0,0,0,.7-.74h0c0-.12-1.47-6.43-1.47-6.43a.76.76,0,0,0-.67-.45h-.14a39.59,39.59,0,0,1-4.1.24,37.47,37.47,0,0,1-4-.23,1.89,1.89,0,0,0-.3,0,.81.81,0,0,0-.62.43C94.37,139.27,92.93,145.52,92.93,145.64Z"/><path class="cls-8" d="M78.77,26.21s0,0,0,0a.71.71,0,0,0-.67-.39,1.61,1.61,0,0,0-.39.09A77.3,77.3,0,0,0,66,30.32a79.69,79.69,0,0,0-10.8,6.27l-.34.24a.77.77,0,0,0-.11.81h0c.05.11,4,5.1,4.1,5.16a.76.76,0,0,0,.82.11h0a71.6,71.6,0,0,1,9.66-5.6,70,70,0,0,1,10.14-3.88,1.41,1.41,0,0,0,.36-.11.73.73,0,0,0,.38-.65C80.21,32.56,78.83,26.33,78.77,26.21Z"/><path class="cls-9" d="M82.17,41.38l0,0a.65.65,0,0,0-.71-.38L81.1,41a60.82,60.82,0,0,0-16.29,7.76,3.38,3.38,0,0,0-.35.3.65.65,0,0,0-.1.73s0,0,0,0,3.89,4.91,3.89,4.91a1.35,1.35,0,0,0,.21.26.63.63,0,0,0,.69.14,1.88,1.88,0,0,0,.33-.18A54.63,54.63,0,0,1,76,51.3a54,54,0,0,1,7-2.74l.24-.08a.76.76,0,0,0,.39-.64C83.6,47.72,82.22,41.49,82.17,41.38Z"/><path class="cls-10" d="M85.55,56.56a0,0,0,0,0,0,0,.73.73,0,0,0-.78-.4l-.29.07a47.15,47.15,0,0,0-5.16,2.08A45.38,45.38,0,0,0,74.42,61h0l-.06,0A.77.77,0,0,0,74,62h0c.06.11,4.1,5.17,4.1,5.17a.77.77,0,0,0,.8.12l.12-.07a40.11,40.11,0,0,1,3.59-2,37.7,37.7,0,0,1,3.7-1.5,1.09,1.09,0,0,0,.28-.11A.77.77,0,0,0,87,63C87,62.92,85.6,56.67,85.55,56.56Z"/><path class="cls-11" d="M119.84,174.32s0,0,0,0a.72.72,0,0,0,.67.39,1.89,1.89,0,0,0,.39-.09,76.9,76.9,0,0,0,22.51-10.72l.35-.23a.78.78,0,0,0,.1-.82h0c0-.11-4-5.1-4.09-5.17a.78.78,0,0,0-.83-.11h0a0,0,0,0,1,0,0,69.42,69.42,0,0,1-9.65,5.6,70.87,70.87,0,0,1-10.14,3.88,1.38,1.38,0,0,0-.37.11.78.78,0,0,0-.38.65C118.41,168,119.78,174.2,119.84,174.32Z"/><path class="cls-12" d="M116.45,159.14s0,0,0,0a.67.67,0,0,0,.72.38l.32-.07a63.09,63.09,0,0,0,8.46-3.28,60.78,60.78,0,0,0,7.84-4.48,3.47,3.47,0,0,0,.34-.3.62.62,0,0,0,.1-.72,0,0,0,0,0,0,0c-.05-.11-3.89-4.9-3.89-4.9a1.35,1.35,0,0,0-.21-.26.61.61,0,0,0-.69-.15,2,2,0,0,0-.32.19,57.72,57.72,0,0,1-6.49,3.66,55.65,55.65,0,0,1-7,2.75,1.07,1.07,0,0,0-.23.07.76.76,0,0,0-.4.65C115,152.81,116.39,159,116.45,159.14Z"/><path class="cls-13" d="M113.07,144h0a.75.75,0,0,0,.78.39l.29-.07a45.42,45.42,0,0,0,10-4.79h0l.06,0a.76.76,0,0,0,.31-1h0c0-.11-4.1-5.17-4.1-5.17a.78.78,0,0,0-.79-.12l-.13.07a34.59,34.59,0,0,1-3.59,2,37.62,37.62,0,0,1-3.69,1.51,1.9,1.9,0,0,0-.29.1.77.77,0,0,0-.37.66C111.62,137.6,113,143.86,113.07,144Z"/><path class="cls-14" d="M48.41,42.69l0,0a.7.7,0,0,0-.77-.06,3,3,0,0,0-.32.25,76.71,76.71,0,0,0-15.54,19.5l-.21.36a.79.79,0,0,0,.27.78h0c.09.07,5.83,2.83,5.94,2.86a.8.8,0,0,0,.79-.27h0v0A69.05,69.05,0,0,1,52.19,48.88a1.21,1.21,0,0,0,.28-.26.77.77,0,0,0,.06-.75C52.48,47.77,48.51,42.77,48.41,42.69Z"/><path class="cls-15" d="M58.1,54.84l0,0a.66.66,0,0,0-.81,0L57,55a63.07,63.07,0,0,0-6.17,6.65,61.5,61.5,0,0,0-5.08,7.47,1.73,1.73,0,0,0-.18.42.63.63,0,0,0,.23.69,0,0,0,0,0,0,0c.1.08,5.65,2.7,5.65,2.7a1.14,1.14,0,0,0,.3.15.66.66,0,0,0,.69-.17,2.7,2.7,0,0,0,.21-.31,55,55,0,0,1,4.23-6.14A52.54,52.54,0,0,1,62,60.94c.05,0,.16-.16.17-.17a.78.78,0,0,0,.08-.75C62.17,59.91,58.21,54.92,58.1,54.84Z"/><path class="cls-16" d="M67.79,67h0a.75.75,0,0,0-.87,0l-.23.19A46,46,0,0,0,63,71.3a46.67,46.67,0,0,0-3.21,4.58v0s0,0,0,.07a.76.76,0,0,0,.15,1v0c.1.07,5.95,2.85,5.95,2.85a.78.78,0,0,0,.77-.24.62.62,0,0,1,.08-.12A36.2,36.2,0,0,1,69,76.13a37.91,37.91,0,0,1,2.66-3,2.06,2.06,0,0,0,.21-.21.75.75,0,0,0,0-.75C71.87,72.09,67.89,67.08,67.79,67Z"/><path class="cls-17" d="M150.21,157.84h0a.7.7,0,0,0,.77.07,2.7,2.7,0,0,0,.31-.25,77.18,77.18,0,0,0,15.54-19.5l.21-.36a.75.75,0,0,0-.26-.78h0c-.1-.07-5.84-2.83-5.95-2.85a.77.77,0,0,0-.79.27h0a70.12,70.12,0,0,1-6.23,9.26,68.28,68.28,0,0,1-7.42,7.93,1.35,1.35,0,0,0-.27.26.75.75,0,0,0-.06.75C146.14,152.76,150.1,157.76,150.21,157.84Z"/><path class="cls-18" d="M140.51,145.69h0a.63.63,0,0,0,.8,0,3.17,3.17,0,0,0,.27-.2,61,61,0,0,0,11.25-14.11s.15-.32.18-.42a.64.64,0,0,0-.23-.7l0,0c-.1-.08-5.64-2.7-5.64-2.7a2,2,0,0,0-.3-.15.64.64,0,0,0-.69.18,1.69,1.69,0,0,0-.21.3,53,53,0,0,1-9.31,11.67l-.18.17a.75.75,0,0,0-.07.75C136.45,140.62,140.41,145.61,140.51,145.69Z"/><path class="cls-19" d="M28.39,70.66h0a.71.71,0,0,0-.72.28,2.22,2.22,0,0,0-.17.37A76.55,76.55,0,0,0,22,95.63l0,.42a.78.78,0,0,0,.58.58h0c.12,0,6.49,0,6.59,0a.79.79,0,0,0,.6-.59h0a68.9,68.9,0,0,1,4.77-21.42,1.12,1.12,0,0,0,.14-.36.75.75,0,0,0-.28-.7C34.26,73.46,28.51,70.69,28.39,70.66Z"/><path class="cls-20" d="M42.42,77.37h-.05a.67.67,0,0,0-.73.33l-.15.3a61.39,61.39,0,0,0-2.65,8.67,63,63,0,0,0-1.32,8.94,2.52,2.52,0,0,0,0,.45.65.65,0,0,0,.51.53h0c.12,0,6.25,0,6.25,0a1.84,1.84,0,0,0,.34,0,.63.63,0,0,0,.54-.46,1.49,1.49,0,0,0,.06-.37,54.1,54.1,0,0,1,1.13-7.37,53.33,53.33,0,0,1,2.15-7.19c0-.06.08-.21.09-.23a.8.8,0,0,0-.27-.71C48.28,80.15,42.54,77.39,42.42,77.37Z"/><path class="cls-21" d="M56.44,84.08h0a.73.73,0,0,0-.79.37,2,2,0,0,0-.13.27A49.07,49.07,0,0,0,54,90.06a48.5,48.5,0,0,0-.88,5.53h0a.22.22,0,0,1,0,.08.77.77,0,0,0,.58.85h0c.11,0,6.59,0,6.59,0a.75.75,0,0,0,.59-.55.52.52,0,0,0,0-.14,38.35,38.35,0,0,1,.66-4c.3-1.31.68-2.58,1.1-3.83a2,2,0,0,0,.1-.29.76.76,0,0,0-.29-.69C62.33,86.88,56.56,84.11,56.44,84.08Z"/><path class="cls-22" d="M22.54,103.82l0,0a.69.69,0,0,0-.53.56,1.74,1.74,0,0,0,0,.4,76.36,76.36,0,0,0,5.45,24.33l.15.39a.76.76,0,0,0,.77.29h0c.12,0,5.86-2.78,5.95-2.84a.81.81,0,0,0,.29-.79h0a70.47,70.47,0,0,1-3.31-10.65,69.18,69.18,0,0,1-1.53-10.76,1.31,1.31,0,0,0,0-.38.75.75,0,0,0-.55-.51C29.05,103.84,22.67,103.8,22.54,103.82Z"/><path class="cls-23" d="M38.09,103.89h0a.67.67,0,0,0-.53.62c0,.07,0,.32,0,.33a62,62,0,0,0,1.31,9,61.34,61.34,0,0,0,2.63,8.64,2.25,2.25,0,0,0,.21.4.63.63,0,0,0,.69.26h0c.12,0,5.64-2.7,5.64-2.7a1.58,1.58,0,0,0,.3-.15.64.64,0,0,0,.3-.64,3.31,3.31,0,0,0-.11-.36,54,54,0,0,1-2.13-7.14,54.81,54.81,0,0,1-1.13-7.42,1.47,1.47,0,0,0,0-.25.74.74,0,0,0-.54-.53C44.58,103.9,38.21,103.86,38.09,103.89Z"/><path class="cls-24" d="M53.64,104h0a.73.73,0,0,0-.56.67,2.93,2.93,0,0,0,0,.3,47.48,47.48,0,0,0,.88,5.49,45.06,45.06,0,0,0,1.56,5.38h0s0,.05,0,.07a.78.78,0,0,0,.89.52h0c.12,0,6-2.84,6-2.84a.79.79,0,0,0,.29-.75,1,1,0,0,0,0-.14,36.42,36.42,0,0,1-1.13-3.94,39,39,0,0,1-.65-3.94,1.21,1.21,0,0,0,0-.3.75.75,0,0,0-.55-.5C60.16,104,53.75,103.94,53.64,104Z"/><path class="cls-25" d="M31.79,137l0,0a.72.72,0,0,0-.23.74,2,2,0,0,0,.18.36A76.23,76.23,0,0,0,47.23,157.6l.3.29a.79.79,0,0,0,.82-.09h0c.09-.07,4.07-5.05,4.12-5.15a.79.79,0,0,0-.09-.83h0a70.35,70.35,0,0,1-7.62-8.15,68.36,68.36,0,0,1-6.07-9,1.48,1.48,0,0,0-.2-.33.8.8,0,0,0-.72-.22C37.65,134.14,31.89,136.88,31.79,137Z"/><path class="cls-26" d="M45.8,130.23l0,0a.64.64,0,0,0-.21.78c0,.07.13.29.14.3a60.08,60.08,0,0,0,11.23,14.13,2.38,2.38,0,0,0,.37.27.64.64,0,0,0,.73-.07l0,0c.1-.07,3.9-4.89,3.9-4.89a1.47,1.47,0,0,0,.21-.26.63.63,0,0,0,0-.71,1.43,1.43,0,0,0-.25-.27,56.21,56.21,0,0,1-5-5.5,54.84,54.84,0,0,1-4.25-6.19,2.13,2.13,0,0,0-.13-.21.76.76,0,0,0-.72-.24C51.65,127.41,45.91,130.15,45.8,130.23Z"/><path class="cls-27" d="M59.83,123.52a0,0,0,0,0,0,0,.74.74,0,0,0-.21.85,1.45,1.45,0,0,0,.14.26,44.94,44.94,0,0,0,3.18,4.56,46.77,46.77,0,0,0,3.75,4.16h0l.06,0a.77.77,0,0,0,1,.08h0c.09-.08,4.11-5.16,4.11-5.16a.77.77,0,0,0-.06-.8l-.1-.11A40.13,40.13,0,0,1,69,124.38a39.18,39.18,0,0,1-2.29-3.26,1.52,1.52,0,0,0-.17-.25.75.75,0,0,0-.72-.21C65.7,120.68,59.92,123.44,59.83,123.52Z"/><path class="cls-28" d="M166.83,63.56s0,0,0,0a.71.71,0,0,0,.23-.74,1.76,1.76,0,0,0-.17-.36,77.85,77.85,0,0,0-7-10.41,76.32,76.32,0,0,0-8.54-9.11l-.31-.28a.75.75,0,0,0-.81.08h0c-.09.08-4.06,5.05-4.11,5.15a.78.78,0,0,0,.08.83h0a68.8,68.8,0,0,1,13.7,17.15,2.09,2.09,0,0,0,.19.33.75.75,0,0,0,.72.22C161,66.39,166.73,63.65,166.83,63.56Z"/><path class="cls-29" d="M152.81,70.29l0,0a.68.68,0,0,0,.21-.78l-.14-.3a61.58,61.58,0,0,0-5.1-7.5,62.59,62.59,0,0,0-6.13-6.63,4,4,0,0,0-.37-.27.64.64,0,0,0-.73.07h0c-.1.08-3.89,4.89-3.89,4.89a1.2,1.2,0,0,0-.22.27.62.62,0,0,0,0,.7,2,2,0,0,0,.25.28,53,53,0,0,1,5,5.5A55.65,55.65,0,0,1,146,72.68a1.35,1.35,0,0,0,.12.22.78.78,0,0,0,.72.23C147,73.11,152.71,70.37,152.81,70.29Z"/><path class="cls-30" d="M54.06,162.37a.08.08,0,0,0,0,0,.72.72,0,0,0,.1.77,2.21,2.21,0,0,0,.32.25,76.54,76.54,0,0,0,22.39,11l.4.13a.78.78,0,0,0,.7-.43h0c.05-.11,1.51-6.31,1.51-6.42A.78.78,0,0,0,79,167h0a68.82,68.82,0,0,1-19.72-9.61,1.68,1.68,0,0,0-.32-.22.77.77,0,0,0-.75.11C58.14,157.31,54.11,162.26,54.06,162.37Z"/><path class="cls-31" d="M63.83,150.29a.08.08,0,0,1,0,0,.65.65,0,0,0,.15.79,1.83,1.83,0,0,0,.26.21,60.6,60.6,0,0,0,16.2,7.95,2.67,2.67,0,0,0,.45.08.62.62,0,0,0,.63-.37l0,0c0-.11,1.42-6.1,1.42-6.1a1.43,1.43,0,0,0,.07-.32.61.61,0,0,0-.31-.63,2,2,0,0,0-.35-.15,52.78,52.78,0,0,1-6.9-2.8A54.56,54.56,0,0,1,69,145.2l-.2-.13a.75.75,0,0,0-.75.09C67.91,145.23,63.89,150.17,63.83,150.29Z"/><path class="cls-32" d="M73.62,138.21h0a.72.72,0,0,0,.17.85,2.12,2.12,0,0,0,.24.19A46.43,46.43,0,0,0,78.86,142,45.85,45.85,0,0,0,84,144.15h0l.07,0a.77.77,0,0,0,1-.36h0c.06-.11,1.51-6.42,1.51-6.42a.77.77,0,0,0-.4-.7l-.14-.05a37.42,37.42,0,0,1-3.78-1.59,34.48,34.48,0,0,1-3.47-2c-.06-.05-.24-.14-.26-.16a.78.78,0,0,0-.74.12C77.71,133.12,73.67,138.1,73.62,138.21Z"/><path class="cls-33" d="M144.56,38.15s0,0,0,0a.74.74,0,0,0-.11-.77,1.67,1.67,0,0,0-.31-.25,77.23,77.23,0,0,0-22.39-11l-.4-.12a.76.76,0,0,0-.7.42h0c-.05.1-1.5,6.3-1.5,6.41a.77.77,0,0,0,.43.72h0a69,69,0,0,1,19.73,9.61,1.29,1.29,0,0,0,.31.22.75.75,0,0,0,.75-.11C140.47,43.22,144.5,38.27,144.56,38.15Z"/><path class="cls-34" d="M134.78,50.24a.06.06,0,0,0,0,0,.68.68,0,0,0-.14-.8l-.26-.21a61.66,61.66,0,0,0-7.82-4.59,60.36,60.36,0,0,0-8.39-3.35,2.57,2.57,0,0,0-.44-.09.63.63,0,0,0-.63.37s0,0,0,0-1.42,6.09-1.42,6.09a1.41,1.41,0,0,0-.08.33.62.62,0,0,0,.32.63,1.67,1.67,0,0,0,.34.14,54.4,54.4,0,0,1,6.91,2.81,53.81,53.81,0,0,1,6.49,3.76,1.86,1.86,0,0,0,.21.14.78.78,0,0,0,.75-.09C130.71,55.3,134.72,50.35,134.78,50.24Z"/><path class="cls-35" d="M125,62.32h0a.75.75,0,0,0-.18-.86,1.83,1.83,0,0,0-.24-.18,44.69,44.69,0,0,0-4.83-2.75,45.93,45.93,0,0,0-5.17-2.15h0l-.08,0a.76.76,0,0,0-.95.37h0c0,.1-1.5,6.42-1.5,6.42a.78.78,0,0,0,.4.7l.13,0a36.4,36.4,0,0,1,3.78,1.58c1.21.6,2.36,1.26,3.48,2a1.31,1.31,0,0,0,.26.16.79.79,0,0,0,.74-.12C120.9,67.4,124.94,62.43,125,62.32Z"/><path class="cls-36" d="M130.83,133.52h0a.72.72,0,0,0,.87,0,1.42,1.42,0,0,0,.24-.19,47.45,47.45,0,0,0,3.73-4.12,49.78,49.78,0,0,0,3.2-4.59h0s0-.05,0-.07a.77.77,0,0,0-.15-1h0c-.09-.08-6-2.86-6-2.86a.77.77,0,0,0-.76.25.74.74,0,0,0-.09.12,39.1,39.1,0,0,1-2.36,3.35,37.76,37.76,0,0,1-2.66,3,2,2,0,0,0-.21.22.77.77,0,0,0,0,.75C126.75,128.43,130.74,133.44,130.83,133.52Z"/><path class="cls-37" d="M138.81,77.05h0a.75.75,0,0,0,.21-.85,1.62,1.62,0,0,0-.14-.27A45.25,45.25,0,0,0,132,67.2h0l-.06,0a.77.77,0,0,0-1-.09h0c-.09.07-4.12,5.15-4.12,5.15a.79.79,0,0,0,.06.81l.11.1a40.18,40.18,0,0,1,2.73,3.06c.83,1,1.58,2.15,2.29,3.26,0,.06.15.23.16.25a.77.77,0,0,0,.73.21C132.94,79.88,138.72,77.12,138.81,77.05Z"/></svg>