<svg id="Layer_1" data-name="Layer 1" xmlns="http://www.w3.org/2000/svg" xmlns:xlink="http://www.w3.org/1999/xlink" viewBox="0 0 230 102"><defs><style>.cls-1{fill:#1a1a1a;}.cls-2{fill:url(#linear-gradient);}.cls-3{fill:#74c061;}.cls-4{fill:#8d65aa;}.cls-5{fill:#2eac4a;}.cls-6{fill:#a6d394;}.cls-7{fill:#6d459a;}.cls-8{fill:#a886b9;}.cls-9{fill:#6fab43;}.cls-10{fill:#9ccc63;}.cls-11{fill:#c1da82;}.cls-12{fill:#434798;}.cls-13{fill:#5f64ac;}.cls-14{fill:#8282be;}.cls-15{fill:#d8c925;}.cls-16{fill:#eadf47;}.cls-17{fill:#f3e96a;}.cls-18{fill:#3975ae;}.cls-19{fill:#649bcd;}.cls-20{fill:#b46a29;}.cls-21{fill:#e29858;}.cls-22{fill:#efb27d;}.cls-23{fill:#ad3434;}.cls-24{fill:#d46062;}.cls-25{fill:#ec8e92;}.cls-26{fill:#ad3471;}.cls-27{fill:#d4639d;}.cls-28{fill:#e586b0;}.cls-29{fill:#34abaa;}.cls-30{fill:#6fc8cc;}.cls-31{fill:#a04596;}.cls-32{fill:#b569a8;}.cls-33{fill:#ca8bbc;}.cls-34{fill:#34ab71;}.cls-35{fill:#70c49a;}.cls-36{fill:#b7dfcf;}.cls-37{fill:#9dcbeb;}.cls-38{fill:#bde3ea;}</style><linearGradient id="linear-gradient" x1="81.82" y1="64.7" x2="55.2" y2="8.47" gradientTransform="translate(11.49 -7.04) rotate(10.56)" gradientUnits="userSpaceOnUse"><stop offset="0" stop-color="#03a4d9"/><stop offset="0.2" stop-color="#32398e"/><stop offset="0.4" stop-color="#e31886"/><stop offset="0.6" stop-color="#e63132"/><stop offset="0.8" stop-color="#f8e317"/><stop offset="1" stop-color="#009b51"/></linearGradient></defs><title>PS_Index</title><path class="cls-1" d="M87.39,46.19l-1.18,1.36A5.13,5.13,0,0,0,82.39,46a4.86,4.86,0,0,0-3.64,1.49,5,5,0,0,0-1.44,3.7,5.09,5.09,0,0,0,1.44,3.72,4.94,4.94,0,0,0,3.64,1.47,5.13,5.13,0,0,0,3.83-1.54l1.18,1.36a6.63,6.63,0,0,1-5,2,6.82,6.82,0,0,1-5-2,7.12,7.12,0,0,1,0-10,6.84,6.84,0,0,1,5-2A6.63,6.63,0,0,1,87.39,46.19Z"/><path class="cls-1" d="M90.33,46.4H88.78V44.6h1.55V39.54h1.94V44.6h3.06V46.4H92.27v7.7c0,1.68.55,2.28,1.83,2.28a8.15,8.15,0,0,0,1.23-.08V58a3.89,3.89,0,0,1-1.47.21q-3.54,0-3.53-4.09Z"/><path class="cls-1" d="M97.56,57.8V44.6H99.5v2.23a4.32,4.32,0,0,1,4.06-2.44,8,8,0,0,1,.81.05v2.1a5.94,5.94,0,0,0-1.31-.13,3.5,3.5,0,0,0-3.56,3.72V57.8Z"/><path class="cls-1" d="M106.86,44.6h1.94v8c0,2.2,1.26,3.59,3.27,3.59a3.5,3.5,0,0,0,3.59-3.72V44.6h1.94V54.73c0,1.15.26,1.65,1,1.65a6.47,6.47,0,0,0,.68-.05V57.8A3,3,0,0,1,118,58a2.14,2.14,0,0,1-1.62-.6,2.36,2.36,0,0,1-.6-1.31A4.66,4.66,0,0,1,111.6,58c-2.91,0-4.74-2-4.74-5Z"/><path class="cls-1" d="M121.34,57.8V44.6h1.94v2.23A3.89,3.89,0,0,1,127,44.39,3.85,3.85,0,0,1,130.88,47,4.15,4.15,0,0,1,135,44.39c2.65,0,4.3,2,4.3,5v5.45c0,1,.18,1.39.92,1.39a4.49,4.49,0,0,0,.5-.05v1.6a2.44,2.44,0,0,1-.84.13c-1,0-2.51-.29-2.51-2.93V49.78c0-2.2-1.1-3.59-2.88-3.59s-3.14,1.52-3.14,3.72V57.8h-1.94v-8c0-2.23-1.07-3.59-2.93-3.59s-3.17,1.52-3.17,3.72V57.8Z"/><path class="cls-1" d="M153.67,62.85V44.6h1.94v2a5.08,5.08,0,0,1,4.69-2.36,6.36,6.36,0,0,1,4.74,2,7.39,7.39,0,0,1,0,10,6.33,6.33,0,0,1-4.74,2,5.08,5.08,0,0,1-4.69-2.36v7Zm10-7.94A5.24,5.24,0,0,0,165,51.2a5.15,5.15,0,0,0-1.36-3.7A4.34,4.34,0,0,0,160.3,46a4.67,4.67,0,0,0-3.54,1.49,5.17,5.17,0,0,0-1.39,3.7,5.27,5.27,0,0,0,1.39,3.72,4.74,4.74,0,0,0,3.54,1.47A4.4,4.4,0,0,0,163.68,54.92Z"/><path class="cls-1" d="M169.39,57.8V44.6h1.94v2.23a4.32,4.32,0,0,1,4.06-2.44,8,8,0,0,1,.81.05v2.1a6,6,0,0,0-1.31-.13,3.49,3.49,0,0,0-3.56,3.72V57.8Z"/><path class="cls-1" d="M177.1,51.2a6.68,6.68,0,0,1,2-5,7.15,7.15,0,0,1,10,0,7.12,7.12,0,0,1,0,10,7.22,7.22,0,0,1-10,0A6.74,6.74,0,0,1,177.1,51.2Zm1.94,0a5.1,5.1,0,0,0,1.44,3.72,5.26,5.26,0,0,0,7.28,0,5.1,5.1,0,0,0,1.44-3.72,5,5,0,0,0-1.44-3.7,5.19,5.19,0,0,0-7.28,0A5,5,0,0,0,179,51.2Z"/><path class="cls-1" d="M194.6,57.8V46.4h-2.12V44.6h2.12v-1.1a4.36,4.36,0,0,1,1.28-3.59,4,4,0,0,1,2.7-.76,3.92,3.92,0,0,1,1,.11v1.83a5.43,5.43,0,0,0-1.23-.13c-1.28,0-1.84.63-1.84,2.28V44.6H199V46.4h-2.49V57.8Z"/><path class="cls-1" d="M201.43,42a1.29,1.29,0,0,1,0-1.86,1.27,1.27,0,0,1,1.83,0,1.3,1.3,0,0,1,0,1.86A1.31,1.31,0,0,1,201.43,42Zm-.05,2.57h1.94V55c0,1,.26,1.39,1,1.39a6.58,6.58,0,0,0,.68-.05v1.6a3.27,3.27,0,0,1-1.23.21c-1.6,0-2.38-.94-2.38-2.81Z"/><path class="cls-1" d="M206.8,39.54h1.94v14.8c0,1.47.42,2,1.65,2a7.08,7.08,0,0,0,.94-.05V58a2.72,2.72,0,0,1-1.21.21,3.82,3.82,0,0,1-2.15-.58c-.73-.45-1.18-1.55-1.18-3.15Z"/><path class="cls-1" d="M212.36,51.25a7.08,7.08,0,0,1,1.86-5.11A6.32,6.32,0,0,1,219,44.2a5.52,5.52,0,0,1,4.38,1.91,6.73,6.73,0,0,1,1.7,4.66c0,.29,0,.58,0,.84H214.3c.11,2.91,2,4.77,4.72,4.77a5,5,0,0,0,4.06-1.83l1.28,1.25A6.86,6.86,0,0,1,219,58.14a6.55,6.55,0,0,1-4.82-1.86,6.66,6.66,0,0,1-1.83-4.92ZM223,49.91a3.69,3.69,0,0,0-1.18-2.75A4,4,0,0,0,219,46a4.59,4.59,0,0,0-3.12,1.15,3.93,3.93,0,0,0-1.41,2.75Z"/><path class="cls-2" d="M74.79,51.57h0Z"/><path class="cls-1" d="M35.57,54.31c.34,1.13,1.52,2,3.33,2,2.17,0,2.91-1,2.91-2a1.68,1.68,0,0,0-.73-1.49,13.56,13.56,0,0,0-2.57-1.26c-2.41-.94-3.59-1.94-3.59-3.85s1.65-3.49,4-3.49a4,4,0,0,1,3.83,2.28l-1.57.81A2.36,2.36,0,0,0,38.92,46c-1.23,0-2.07.63-2.07,1.7s.89,1.63,2.88,2.38c2.73,1,4,2.2,4,4.22S42,58.11,38.9,58.11c-2.51,0-4.45-1.15-5-3.17Z"/><path class="cls-1" d="M45.79,62.85V44.6h1.94v2a5.08,5.08,0,0,1,4.69-2.36,6.36,6.36,0,0,1,4.74,2,7.4,7.4,0,0,1,0,10,6.34,6.34,0,0,1-4.74,2,5.07,5.07,0,0,1-4.69-2.36v7Zm10-7.94a5.26,5.26,0,0,0,1.36-3.72,5.16,5.16,0,0,0-1.36-3.7A4.34,4.34,0,0,0,52.41,46a4.67,4.67,0,0,0-3.54,1.49,5.18,5.18,0,0,0-1.39,3.7,5.28,5.28,0,0,0,1.39,3.72,4.75,4.75,0,0,0,3.54,1.47A4.4,4.4,0,0,0,55.8,54.92Z"/><path class="cls-1" d="M60.93,51.25a7.08,7.08,0,0,1,1.86-5.11,6.32,6.32,0,0,1,4.74-1.94,5.51,5.51,0,0,1,4.37,1.91,6.72,6.72,0,0,1,1.7,4.66c0,.29,0,.58,0,.84H62.87c.1,2.91,2,4.77,4.72,4.77a5,5,0,0,0,4.06-1.83l1.28,1.25a6.87,6.87,0,0,1-5.34,2.33,6.56,6.56,0,0,1-4.82-1.86,6.66,6.66,0,0,1-1.83-4.92Zm10.61-1.34a3.69,3.69,0,0,0-1.18-2.75A3.93,3.93,0,0,0,67.53,46a4.59,4.59,0,0,0-3.12,1.15A3.94,3.94,0,0,0,63,49.91Z"/><path class="cls-3" d="M50.18,19.61v0a.34.34,0,0,0-.25-.34l-.17,0a31.28,31.28,0,0,0-9.36,0l-.23.06a.33.33,0,0,0-.21.32h0c0,.07.73,3.16.73,3.16a.81.81,0,0,0,0,.17.33.33,0,0,0,.29.22,1.11,1.11,0,0,0,.19,0,27.81,27.81,0,0,1,7.74,0l.13,0a.39.39,0,0,0,.33-.21C49.44,22.9,50.18,19.68,50.18,19.61Z"/><path class="cls-4" d="M40,82.39v0a.34.34,0,0,0,.25.34l.17,0a31.31,31.31,0,0,0,9.36,0l.23-.06a.33.33,0,0,0,.21-.32h0c0-.07-.73-3.16-.73-3.16a.79.79,0,0,0,0-.17.32.32,0,0,0-.29-.22,1.05,1.05,0,0,0-.19,0,27.78,27.78,0,0,1-7.74,0l-.13,0a.39.39,0,0,0-.33.21C40.71,79.1,40,82.32,40,82.39Z"/><path class="cls-5" d="M52,11.75v0a.37.37,0,0,0-.22-.33,1,1,0,0,0-.2,0,39.77,39.77,0,0,0-12.93,0l-.21,0a.4.4,0,0,0-.23.36h0c0,.06.74,3.28.76,3.33a.41.41,0,0,0,.36.23h0a35.78,35.78,0,0,1,11.38,0,.71.71,0,0,0,.2,0,.39.39,0,0,0,.32-.22C51.23,15,52,11.82,52,11.75Z"/><path class="cls-6" d="M48.38,27.47h0a.38.38,0,0,0-.28-.36l-.15,0a23.24,23.24,0,0,0-5.77,0h0a.4.4,0,0,0-.36.39h0c0,.06.77,3.33.77,3.33a.39.39,0,0,0,.34.23H43a19.86,19.86,0,0,1,2.12-.12,20.1,20.1,0,0,1,2.06.12l.16,0a.4.4,0,0,0,.32-.22C47.64,30.77,48.38,27.53,48.38,27.47Z"/><path class="cls-7" d="M38.17,90.25v0a.37.37,0,0,0,.22.33,1,1,0,0,0,.2,0,39.77,39.77,0,0,0,12.93,0l.21,0a.4.4,0,0,0,.23-.36h0c0-.06-.74-3.28-.76-3.33a.41.41,0,0,0-.36-.23h0a35.72,35.72,0,0,1-11.38,0,.72.72,0,0,0-.2,0,.39.39,0,0,0-.32.22C38.92,87,38.17,90.18,38.17,90.25Z"/><path class="cls-8" d="M41.77,74.53h0a.38.38,0,0,0,.28.36l.15,0a23.19,23.19,0,0,0,5.77,0h0a.4.4,0,0,0,.36-.39h0c0-.06-.76-3.33-.76-3.33a.4.4,0,0,0-.35-.23H47.2A18.09,18.09,0,0,1,43,71l-.16,0a.4.4,0,0,0-.32.22C42.51,71.23,41.77,74.47,41.77,74.53Z"/><path class="cls-9" d="M34.43,12.6v0a.37.37,0,0,0-.35-.2.94.94,0,0,0-.2,0A39.71,39.71,0,0,0,22.19,18l-.18.12a.4.4,0,0,0-.05.42h0c0,.06,2.08,2.64,2.12,2.68a.4.4,0,0,0,.43.05h0a35.73,35.73,0,0,1,10.26-4.91.67.67,0,0,0,.19-.06.4.4,0,0,0,.2-.34C35.17,15.89,34.46,12.66,34.43,12.6Z"/><path class="cls-10" d="M36.19,20.47v0a.34.34,0,0,0-.37-.2l-.17,0a31.37,31.37,0,0,0-8.45,4,1.35,1.35,0,0,0-.18.15.33.33,0,0,0-.05.38h0c0,.06,2,2.54,2,2.54a.83.83,0,0,0,.11.14.33.33,0,0,0,.36.08,1,1,0,0,0,.17-.1,27.86,27.86,0,0,1,7-3.32l.12,0a.4.4,0,0,0,.2-.33C36.93,23.75,36.22,20.53,36.19,20.47Z"/><path class="cls-11" d="M37.94,28.34h0a.38.38,0,0,0-.4-.2l-.15,0a23.08,23.08,0,0,0-5.21,2.49h0l0,0a.4.4,0,0,0-.16.51h0c0,.06,2.12,2.68,2.12,2.68a.4.4,0,0,0,.41.06l.06,0a19.63,19.63,0,0,1,1.86-1,19.92,19.92,0,0,1,1.91-.78L38.5,32a.4.4,0,0,0,.19-.34C38.69,31.64,38,28.39,37.94,28.34Z"/><path class="cls-12" d="M55.72,89.4v0a.37.37,0,0,0,.35.2,1,1,0,0,0,.2,0A39.75,39.75,0,0,0,68,84l.18-.12a.4.4,0,0,0,.05-.42h0c0-.06-2.08-2.64-2.12-2.68a.41.41,0,0,0-.43-.06h0a36,36,0,0,1-5,2.9,36.43,36.43,0,0,1-5.26,2,.7.7,0,0,0-.19.06A.4.4,0,0,0,55,86C55,86.11,55.69,89.34,55.72,89.4Z"/><path class="cls-13" d="M54,81.53v0a.34.34,0,0,0,.37.2l.17,0a31.31,31.31,0,0,0,8.45-4,1.42,1.42,0,0,0,.18-.15.33.33,0,0,0,.05-.38h0c0-.06-2-2.54-2-2.54a.87.87,0,0,0-.11-.14.33.33,0,0,0-.36-.08,1,1,0,0,0-.17.1,27.92,27.92,0,0,1-7,3.33l-.12,0a.4.4,0,0,0-.21.33C53.22,78.25,53.93,81.47,54,81.53Z"/><path class="cls-14" d="M52.21,73.66h0a.38.38,0,0,0,.4.2l.15,0a23.88,23.88,0,0,0,2.68-1.08A23.58,23.58,0,0,0,58,71.35h0l0,0a.4.4,0,0,0,.16-.51h0c0-.06-2.12-2.68-2.12-2.68a.4.4,0,0,0-.41-.06l-.06,0a19.49,19.49,0,0,1-1.86,1,20.22,20.22,0,0,1-1.91.78l-.15.05a.4.4,0,0,0-.19.34C51.46,70.36,52.18,73.61,52.21,73.66Z"/><path class="cls-15" d="M18.68,21.14h0a.37.37,0,0,0-.4,0,1,1,0,0,0-.16.13A39.74,39.74,0,0,0,10,31.35l-.11.19a.4.4,0,0,0,.14.4h0s3,1.47,3.08,1.48a.4.4,0,0,0,.41-.14h0a35.71,35.71,0,0,1,7.07-8.91.71.71,0,0,0,.14-.13.4.4,0,0,0,0-.39C20.79,23.78,18.73,21.19,18.68,21.14Z"/><path class="cls-16" d="M23.71,27.45h0a.34.34,0,0,0-.42,0l-.14.11a31.31,31.31,0,0,0-5.83,7.32,1.49,1.49,0,0,0-.09.22.33.33,0,0,0,.12.36h0c.05,0,2.93,1.4,2.93,1.4a.74.74,0,0,0,.16.08.32.32,0,0,0,.36-.09,1.08,1.08,0,0,0,.11-.16,27.89,27.89,0,0,1,4.83-6.05l.09-.09a.4.4,0,0,0,0-.39C25.82,30.07,23.76,27.49,23.71,27.45Z"/><path class="cls-17" d="M28.73,33.75h0a.38.38,0,0,0-.45,0l-.12.1a23.23,23.23,0,0,0-3.6,4.52h0l0,0a.4.4,0,0,0,.08.53h0s3.08,1.48,3.08,1.48a.4.4,0,0,0,.4-.12l0-.06a19.45,19.45,0,0,1,1.23-1.74,19.92,19.92,0,0,1,1.38-1.54.75.75,0,0,0,.11-.11.4.4,0,0,0,0-.39C30.85,36.39,28.78,33.79,28.73,33.75Z"/><path class="cls-18" d="M71.47,80.86h0a.36.36,0,0,0,.4,0,.92.92,0,0,0,.16-.13,39.77,39.77,0,0,0,8.06-10.11l.11-.19a.4.4,0,0,0-.14-.4h0s-3-1.47-3.08-1.48a.4.4,0,0,0-.41.14h0a35.71,35.71,0,0,1-7.07,8.92.76.76,0,0,0-.14.13.4.4,0,0,0,0,.39C69.36,78.22,71.42,80.81,71.47,80.86Z"/><path class="cls-19" d="M66.44,74.55h0a.34.34,0,0,0,.42,0l.14-.1a31.38,31.38,0,0,0,5.83-7.32,1.43,1.43,0,0,0,.09-.22.33.33,0,0,0-.12-.36h0c-.05,0-2.93-1.4-2.93-1.4a.8.8,0,0,0-.16-.08.32.32,0,0,0-.36.09,1.14,1.14,0,0,0-.11.16,27.85,27.85,0,0,1-4.83,6.05l-.09.09a.4.4,0,0,0,0,.39C64.33,71.93,66.39,74.51,66.44,74.55Z"/><path class="cls-20" d="M8.3,35.65h0a.37.37,0,0,0-.37.15.92.92,0,0,0-.09.19A39.77,39.77,0,0,0,5,48.6c0,.07,0,.14,0,.21a.4.4,0,0,0,.3.3h0c.06,0,3.36,0,3.42,0A.4.4,0,0,0,9,48.8H9a35.71,35.71,0,0,1,2.48-11.11.71.71,0,0,0,.07-.19.4.4,0,0,0-.14-.36S8.36,35.67,8.3,35.65Z"/><path class="cls-21" d="M15.57,39.13h0a.34.34,0,0,0-.38.17l-.08.16A31.32,31.32,0,0,0,13,48.58a1.42,1.42,0,0,0,0,.24.33.33,0,0,0,.27.27h0c.06,0,3.24,0,3.24,0a.76.76,0,0,0,.17,0,.33.33,0,0,0,.28-.24,1,1,0,0,0,0-.19,27.87,27.87,0,0,1,1.7-7.55.69.69,0,0,0,0-.12.4.4,0,0,0-.14-.37S15.64,39.14,15.57,39.13Z"/><path class="cls-22" d="M22.85,42.61h0a.38.38,0,0,0-.41.19,1.08,1.08,0,0,0-.07.14,23.23,23.23,0,0,0-1.27,5.63h0s0,0,0,0a.4.4,0,0,0,.3.44h0c.06,0,3.42,0,3.42,0a.4.4,0,0,0,.31-.29s0-.06,0-.08a20.18,20.18,0,0,1,.35-2.1,19.74,19.74,0,0,1,.57-2,.83.83,0,0,0,0-.15.39.39,0,0,0-.15-.36S22.91,42.62,22.85,42.61Z"/><path class="cls-23" d="M5.27,52.85h0a.37.37,0,0,0-.28.29,1.12,1.12,0,0,0,0,.21A39.73,39.73,0,0,0,7.8,66l.08.2a.4.4,0,0,0,.4.15h0c.06,0,3-1.44,3.08-1.47a.4.4,0,0,0,.15-.41h0A35.74,35.74,0,0,1,9,53.33a.74.74,0,0,0,0-.2.4.4,0,0,0-.29-.27C8.64,52.85,5.33,52.83,5.27,52.85Z"/><path class="cls-24" d="M13.33,52.88h0a.34.34,0,0,0-.28.32s0,.17,0,.17a31.41,31.41,0,0,0,2,9.13,1.48,1.48,0,0,0,.11.21.33.33,0,0,0,.36.13h0c.06,0,2.93-1.4,2.93-1.4a1,1,0,0,0,.16-.08.33.33,0,0,0,.15-.33,1,1,0,0,0-.05-.18,27.85,27.85,0,0,1-1.69-7.55,1.13,1.13,0,0,0,0-.13.4.4,0,0,0-.28-.27C16.7,52.89,13.4,52.87,13.33,52.88Z"/><path class="cls-25" d="M21.39,52.92h0a.38.38,0,0,0-.29.35,1.1,1.1,0,0,0,0,.15,23.17,23.17,0,0,0,1.26,5.63h0l0,0a.4.4,0,0,0,.46.27h0c.06,0,3.08-1.47,3.08-1.47a.4.4,0,0,0,.15-.39l0-.07a18.08,18.08,0,0,1-.92-4.08.7.7,0,0,0,0-.15.4.4,0,0,0-.29-.26C24.77,52.92,21.45,52.91,21.39,52.92Z"/><path class="cls-26" d="M10.06,70h0a.37.37,0,0,0-.12.38.89.89,0,0,0,.09.19,39.76,39.76,0,0,0,8,10.12l.16.15a.4.4,0,0,0,.42,0h0s2.11-2.62,2.13-2.67a.4.4,0,0,0,0-.43h0a35.77,35.77,0,0,1-7.1-8.89.81.81,0,0,0-.1-.17.4.4,0,0,0-.37-.12C13.1,68.57,10.11,70,10.06,70Z"/><path class="cls-27" d="M17.33,66.54v0a.34.34,0,0,0-.11.4l.07.16a31.31,31.31,0,0,0,5.82,7.33,1.39,1.39,0,0,0,.19.14.33.33,0,0,0,.38,0h0c.05,0,2-2.54,2-2.54a.72.72,0,0,0,.11-.14.33.33,0,0,0,0-.37,1,1,0,0,0-.13-.14,27.88,27.88,0,0,1-4.82-6.06l-.06-.11a.39.39,0,0,0-.37-.12C20.36,65.08,17.38,66.5,17.33,66.54Z"/><path class="cls-28" d="M24.6,63.06h0a.38.38,0,0,0-.11.44.78.78,0,0,0,.07.14,23.08,23.08,0,0,0,3.59,4.52h0l0,0a.4.4,0,0,0,.53,0h0s2.13-2.67,2.13-2.67a.4.4,0,0,0,0-.42l-.05-.05a20.37,20.37,0,0,1-1.42-1.58,20,20,0,0,1-1.19-1.69.86.86,0,0,0-.09-.13.4.4,0,0,0-.38-.11C27.65,61.59,24.65,63,24.6,63.06Z"/><path class="cls-29" d="M80.09,32h0a.37.37,0,0,0,.12-.38,1,1,0,0,0-.09-.19,39.77,39.77,0,0,0-8-10.12l-.16-.15a.4.4,0,0,0-.42,0h0s-2.11,2.62-2.13,2.67a.4.4,0,0,0,0,.43h0a35.77,35.77,0,0,1,7.1,8.89.66.66,0,0,0,.1.17.39.39,0,0,0,.37.12C77,33.44,80,32,80.09,32Z"/><path class="cls-30" d="M72.82,35.46v0a.34.34,0,0,0,.11-.4l-.07-.16A31.45,31.45,0,0,0,67,27.55l-.19-.14a.33.33,0,0,0-.38,0h0c-.05,0-2,2.54-2,2.54a.87.87,0,0,0-.11.14.32.32,0,0,0,0,.37.94.94,0,0,0,.13.14,27.87,27.87,0,0,1,4.82,6.06l.07.11a.4.4,0,0,0,.37.13C69.79,36.92,72.77,35.5,72.82,35.46Z"/><path class="cls-31" d="M21.61,83.21v0a.37.37,0,0,0,.06.4.93.93,0,0,0,.16.13,39.77,39.77,0,0,0,11.61,5.69l.21.06a.4.4,0,0,0,.36-.22h0c0-.06.78-3.27.78-3.33a.4.4,0,0,0-.22-.37h0a35.8,35.8,0,0,1-10.23-5,.65.65,0,0,0-.16-.11.39.39,0,0,0-.39.05S21.64,83.15,21.61,83.21Z"/><path class="cls-32" d="M26.68,76.94v0a.34.34,0,0,0,.07.41l.13.11a31.28,31.28,0,0,0,8.4,4.12l.23,0a.33.33,0,0,0,.33-.19h0c0-.06.74-3.16.74-3.16a.83.83,0,0,0,0-.17.33.33,0,0,0-.16-.33,1,1,0,0,0-.18-.07,28,28,0,0,1-3.58-1.46,28.35,28.35,0,0,1-3.37-2l-.11-.07a.4.4,0,0,0-.39,0C28.79,74.32,26.71,76.88,26.68,76.94Z"/><path class="cls-33" d="M31.76,70.68h0a.38.38,0,0,0,.09.44l.12.1a23.29,23.29,0,0,0,5.19,2.54h0a.4.4,0,0,0,.49-.19h0c0-.06.78-3.33.78-3.33a.4.4,0,0,0-.21-.36l-.07,0A18.16,18.16,0,0,1,34.44,68l-.13-.08a.4.4,0,0,0-.39.06S31.78,70.62,31.76,70.68Z"/><path class="cls-34" d="M68.54,18.79v0a.37.37,0,0,0-.06-.4,1,1,0,0,0-.16-.13,39.77,39.77,0,0,0-11.61-5.69l-.21-.06a.4.4,0,0,0-.36.22h0c0,.05-.78,3.27-.78,3.33a.4.4,0,0,0,.22.37h0a35.79,35.79,0,0,1,10.23,5,.7.7,0,0,0,.16.11.4.4,0,0,0,.39-.05S68.51,18.85,68.54,18.79Z"/><path class="cls-35" d="M63.47,25.06v0a.34.34,0,0,0-.07-.41l-.13-.11a31.27,31.27,0,0,0-8.4-4.12l-.23,0a.33.33,0,0,0-.33.19h0c0,.06-.74,3.16-.74,3.16a.82.82,0,0,0,0,.17.32.32,0,0,0,.16.33,1,1,0,0,0,.18.07,27.83,27.83,0,0,1,6.95,3.41l.11.07a.4.4,0,0,0,.39,0C61.36,27.68,63.44,25.12,63.47,25.06Z"/><path class="cls-36" d="M58.39,31.32h0a.38.38,0,0,0-.09-.44l-.12-.1A23.12,23.12,0,0,0,53,28.24h0a.4.4,0,0,0-.49.19h0c0,.06-.78,3.33-.78,3.33a.4.4,0,0,0,.21.36l.07,0a20.06,20.06,0,0,1,2,.82,19.82,19.82,0,0,1,1.8,1l.13.08a.4.4,0,0,0,.39-.06S58.37,31.38,58.39,31.32Z"/><path class="cls-37" d="M61.42,68.24h0a.38.38,0,0,0,.45,0l.12-.1A23.81,23.81,0,0,0,63.93,66a23.54,23.54,0,0,0,1.66-2.38h0l0,0a.4.4,0,0,0-.08-.52h0s-3.08-1.48-3.08-1.48a.4.4,0,0,0-.4.13l0,.06a19.8,19.8,0,0,1-1.22,1.74,19.53,19.53,0,0,1-1.38,1.54.85.85,0,0,0-.11.11.4.4,0,0,0,0,.39C59.3,65.6,61.37,68.21,61.42,68.24Z"/><path class="cls-38" d="M65.56,39h0a.38.38,0,0,0,.11-.44,1,1,0,0,0-.07-.14A23.17,23.17,0,0,0,62,33.86h0l0,0a.4.4,0,0,0-.53,0h0s-2.13,2.67-2.13,2.67a.4.4,0,0,0,0,.42l.05.05a20.22,20.22,0,0,1,1.42,1.58A19.9,19.9,0,0,1,62,40.2a.82.82,0,0,0,.09.13.4.4,0,0,0,.38.11C62.51,40.43,65.51,39,65.56,39Z"/></svg>